<svg width="580" height="400" xmlns="http://www.w3.org/2000/svg">
 <!-- Created with Method Draw - http://github.com/duopixel/Method-Draw/ -->
 <g>
  <title>background</title>
  <rect fill="#fff" id="canvas_background" height="402" width="582" y="-1" x="-1"/>
  <g display="none" overflow="visible" y="0" x="0" height="100%" width="100%" id="canvasGrid">
   <rect fill="url(#gridpattern)" stroke-width="0" y="0" x="0" height="100%" width="100%"/>
  </g>
 </g>
 <g>
  <title>Layer 1</title>
  <ellipse ry="50.5" rx="56" id="svg_2" cy="200.023332" cx="96.388976" stroke-width="1.5" stroke="#000" fill="#fff"/>
  <ellipse ry="50.5" rx="56" id="svg_3" cy="75.023595" cx="470.277067" stroke-width="1.5" stroke="#000" fill="#fff"/>
  <ellipse ry="50.5" rx="56" id="svg_4" cy="302.245341" cx="273.055274" stroke-width="1.5" stroke="#000" fill="#fff"/>
  <ellipse ry="50.5" rx="56" id="svg_5" cy="309.356785" cx="487.721916" stroke-width="1.5" stroke="#000" fill="#fff"/>
  <ellipse ry="50.5" rx="56" id="svg_6" cy="76.356933" cx="266.722398" stroke-width="1.5" stroke="#000" fill="#fff"/>
  <path id="svg_8" d="m111.944823,129.179834" opacity="0.5" fill-opacity="null" stroke-opacity="null" stroke-width="1.5" stroke="#000" fill="#fff"/>
  <path id="svg_9" d="m108.611497,148.068684" opacity="0.5" fill-opacity="null" stroke-opacity="null" stroke-width="1.5" stroke="#000" fill="#fff"/>
  <line stroke-linecap="null" stroke-linejoin="null" id="svg_10" y2="85.291038" x2="211.944613" y1="150.290901" x1="85.833767" fill-opacity="null" stroke-opacity="null" stroke-width="1.5" stroke="#000" fill="none"/>
  <line stroke-linecap="null" stroke-linejoin="null" id="svg_11" y2="300.84614" x2="216.389048" y1="243.624038" x1="128.055901" fill-opacity="null" stroke-opacity="null" stroke-width="1.5" stroke="#000" fill="none"/>
  <line stroke-linecap="null" stroke-linejoin="null" id="svg_12" y2="253.068463" x2="253.611192" y1="124.179845" x1="246.944539" fill-opacity="null" stroke-opacity="null" stroke-width="1.5" stroke="#000" fill="none"/>
  <line stroke-linecap="null" stroke-linejoin="null" id="svg_13" y2="250.846245" x2="294.166662" y1="126.957617" x1="290.277781" fill-opacity="null" stroke-opacity="null" stroke-width="1.5" stroke="#000" fill="none"/>
  <line stroke-linecap="null" stroke-linejoin="null" id="svg_14" y2="62.513308" x2="415.277518" y1="51.957775" x1="318.611055" fill-opacity="null" stroke-opacity="null" stroke-width="1.5" stroke="#000" fill="none"/>
  <line stroke-linecap="null" stroke-linejoin="null" id="svg_15" y2="257.512898" x2="483.055153" y1="129.735389" x1="476.388501" fill-opacity="null" stroke-opacity="null" stroke-width="1.5" stroke="#000" fill="none"/>
  <line stroke-linecap="null" stroke-linejoin="null" id="svg_17" y2="313.623891" x2="429.721932" y1="310.290564" x1="331.94436" fill-opacity="null" stroke-opacity="null" stroke-width="1.5" stroke="#000" fill="none"/>
  <path id="svg_19" d="m318.611055,270.290649" opacity="0.5" fill-opacity="null" stroke-opacity="null" stroke-width="1.5" stroke="#000" fill="#fff"/>
  <path id="svg_20" d="m314.722174,266.957322" opacity="0.5" fill-opacity="null" stroke-opacity="null" stroke-width="1.5" stroke="#000" fill="#fff"/>
  <line stroke-linecap="null" stroke-linejoin="null" id="svg_21" y2="118.624301" x2="440.277466" y1="269.735094" x1="318.055501" fill-opacity="null" stroke-opacity="null" stroke-width="1.5" stroke="#000" fill="none"/>
  <line stroke-linecap="null" stroke-linejoin="null" id="svg_22" y2="273.623975" x2="448.610782" y1="95.846571" x1="320.833273" fill-opacity="null" stroke-opacity="null" stroke-width="1.5" stroke="#000" fill="none"/>
  <path d="m196.944641,80.846603c0,0 0.555557,0.555557 1.111115,1.111107c0.555557,0.555557 2.149033,1.271439 4.444427,2.222221c1.623093,0.67231 3.888885,1.111107 4.444443,1.111107c0,0 0.555557,0 1.111099,0.555557c0,0 0,0 0,0c0,0 0.555557,0 0.555557,0c0.555557,0 0.555557,0 1.111115,0c0,0 0,0 0,1.111107c0,1.111107 0,1.666664 -0.555557,2.777771c0,0 0,0.555557 -0.555557,1.111107c-0.555557,0.555557 -1.111099,1.666664 -1.111099,2.222221c0,0.55555 -0.16272,0.718269 -0.555557,1.111107c-0.392838,0.392838 -0.555557,1.111107 -0.555557,1.666664l-0.555557,1.111107l0,0.555557l0,1.111107" id="svg_23" fill-opacity="null" stroke-opacity="null" stroke-width="1.5" stroke="#000" fill="none"/>
  <path d="m213.055725,288.06839c0,0 0,0.555542 0,1.666656c0,1.111115 0.81044,3.163025 1.111099,3.888885c0.425201,1.02655 -0.000015,1.666656 0.555557,2.222229c0.555557,0.555542 0.555557,1.666656 1.111115,2.222198c0.555573,0.555573 0.898483,1.708954 1.111099,2.222229c0.300659,0.725861 1.111115,1.111115 1.111115,1.111115c0,0.555542 0.725876,0.810425 0,1.111115c-0.51326,0.212616 -1.111115,0 -2.222214,0c-1.111115,0 -1.681534,-0.127625 -2.222214,0c-1.20903,0.2854 -2.222229,0.555542 -2.777771,0.555542c-0.555557,0 -0.597839,-0.212585 -1.111115,0c-0.725861,0.300659 -1.153412,0.342926 -1.666672,0.555542c-0.725861,0.30069 -1.666656,0.555573 -2.777771,1.111115l0,0l-0.555542,0l0,0" id="svg_24" fill-opacity="null" stroke-opacity="null" stroke-width="1.5" stroke="#000" fill="none"/>
  <path d="m246.388992,124.735397c-0.555557,0.555557 -1.111115,1.111115 -1.666672,1.666664c-0.555557,0.555557 -1.168549,1.614632 -1.666656,2.222221c-1.269928,1.549072 -2.325562,2.606964 -3.333328,3.333328c-0.637375,0.459396 -1.454071,1.708939 -1.666672,2.222214c-0.300659,0.725861 -1.111099,1.111115 -1.111099,1.666656l0,0.555557l-0.555557,0.555557l-0.555557,0.555557" id="svg_25" fill-opacity="null" stroke-opacity="null" stroke-width="1.5" stroke="#000" fill="none"/>
  <path d="m259.166748,135.846481c0,-0.555542 0,-0.555527 -0.555573,-1.111099c-0.555542,-0.555557 -1.111115,-1.111115 -1.666656,-1.666672c-0.555542,-0.555542 -0.488068,-1.385239 -2.222214,-1.666656c-0.548386,-0.088989 -1.273834,-0.16272 -1.666672,-0.555557c-0.392838,-0.392838 0.12764,-0.570419 0,-1.111115c-0.285416,-1.209015 -1.165482,-2.124672 -2.222214,-2.777763c-0.47258,-0.292076 -0.555557,0 -1.111115,-0.555557c-0.555542,-0.55555 -0.555542,-0.55555 -1.111099,-0.55555c0,0 -0.555557,0 -0.555557,0l-0.555557,0l0,0" id="svg_26" fill-opacity="null" stroke-opacity="null" stroke-width="1.5" stroke="#000" fill="none"/>
  <path d="m285.277802,243.068481c0,0 0.042297,-0.212601 0.555542,0c0.725861,0.300659 1.503021,2.414536 2.777771,3.333328c1.007782,0.726364 1.507813,1.784256 2.777771,3.333328c0.498108,0.607605 0.718292,1.273834 1.111115,1.666656c0.392822,0.392822 0.555542,0.555557 0.555542,0.555557c0,0.555557 0,0.555557 0,1.111115c0,0 0,0 0,0.555557c0,0 0.555573,-0.555557 1.111115,-1.111115c0,0 1.381256,-1.568741 1.666656,-2.777771c0.127625,-0.540695 0,-1.111115 0.555573,-1.666672c0.555542,-0.555542 1.214447,-0.940308 2.222198,-1.666656c0.63739,-0.459396 1.77002,-0.940323 2.777771,-1.666656c0.63739,-0.459396 1.273834,-1.829391 1.666687,-2.222229c0.392822,-0.392822 0.555542,-0.555542 0.555542,-0.555542l0.555542,-0.555557l0,0l0,-0.555557" id="svg_27" fill-opacity="null" stroke-opacity="null" stroke-width="1.5" stroke="#000" fill="none"/>
  <path d="m424.166382,122.513184c0,0 1.666656,0 3.333344,0c1.111084,0 2.222198,0 2.777771,0c0,0 0.562714,0.088997 1.111115,0c1.734131,-0.28141 4.489014,-0.728188 6.111084,-1.111107c1.209045,-0.285416 0.718262,-0.718277 1.111115,-1.111115c0.392822,-0.39283 1.111115,0 1.666656,-0.55555c0,0 -0.555542,0 -0.555542,0.55555c0,1.666664 0,2.777771 0,3.888885c0,1.111107 0,2.222214 0,2.222214c0,0.555557 0,1.111107 0,1.111107c0,0.555557 0,1.666672 0,2.222214c0,0.555557 0,1.111115 0,1.111115l0,0.555557" id="svg_28" fill-opacity="null" stroke-opacity="null" stroke-width="1.5" stroke="#000" fill="none"/>
  <path d="m449.166321,259.179565c0,0.555542 0,1.111115 0,2.222198c0,1.111115 -0.425232,2.306824 0,3.333344c0.30069,0.725861 0.342957,1.708954 0.555573,2.222229c0.300659,0.725861 0.555542,1.111084 0.555542,1.666656c0,0.555542 0,2.222198 0,3.333313c0,1.111115 0.392822,1.273834 0,1.666656c-0.392822,0.392822 -0.555542,0 -0.555542,0c0,0 -1.111115,-0.555542 -2.777771,-0.555542c-4.444427,0 -7.222198,-1.111115 -8.888885,-1.111115c-0.555542,0 -0.555542,0 -1.111084,-0.555542l0,0l-0.555573,0l-0.555542,0" id="svg_29" fill-opacity="null" stroke-opacity="null" stroke-width="1.5" stroke="#000" fill="none"/>
  <path d="m416.944183,300.290588c0,0.555542 0.114899,1.00705 1.111115,2.222229c1.269928,1.549072 3.002228,2.450867 5.555542,4.444427c1.238556,0.967041 0.788269,1.343811 1.666656,2.222198c0.878418,0.878418 1.838989,1.510559 3.333313,3.333344c1.269928,1.549072 1.273865,1.829376 1.666687,2.222198c0.392822,0.392822 0.555573,0 0,0.555573c-0.555573,0.555573 -1.045288,0.661255 -2.777771,1.666656c-1.074432,0.623505 -1.829376,0.718262 -2.222229,1.111115c-0.392822,0.392822 -0.978394,0.786591 -2.777771,1.666656c-1.578156,0.771881 -3.333313,1.666656 -3.888885,2.222229l-0.555542,0l-0.555573,0.555542l0,0" id="svg_30" fill-opacity="null" stroke-opacity="null" stroke-width="1.5" stroke="#000" fill="none"/>
  <path d="m408.055298,49.735558c0,0.555553 0.254883,0.385231 0.555573,1.111107c0.425201,1.026527 0.555542,2.222218 2.777771,4.444435c1.111115,1.111111 2.094604,2.792637 2.222229,3.333328c0.2854,1.209019 1.111084,1.666664 1.111084,1.666664c0,0.555553 0.810455,0.385246 1.111115,1.111107c0.425201,1.026535 0.555573,1.111111 0.555573,1.666664c0,0 0.065826,0.661259 -1.666687,1.666664c-2.148865,1.247032 -4.117798,1.6492 -6.111084,2.777771c-1.367401,0.7742 -2.265808,1.549911 -3.888885,2.222214c-1.147705,0.475395 -1.881592,1.065338 -3.333313,1.666664c-1.02652,0.425209 -2.222229,0.555557 -2.777771,0.555557l0,0l-0.555573,0l-0.555542,0.555557" id="svg_31" fill-opacity="null" stroke-opacity="null" stroke-width="1.5" stroke="#000" fill="none"/>
  <path d="m474.16629,125.846512c-0.555573,0.55555 -2.132629,2.872482 -3.888885,4.444427c-2.650635,2.372437 -5.123718,4.291122 -7.222198,6.111099c-0.593567,0.514786 -1.899384,1.343826 -2.777771,2.222214c-0.878418,0.878418 -1.666687,1.666672 -2.222229,2.222229l0,0.555557" id="svg_32" fill-opacity="null" stroke-opacity="null" stroke-width="1.5" stroke="#000" fill="none"/>
  <path d="m491.944031,140.846481c0,0 -0.555573,-0.555557 -0.555573,-1.111115c0,0 -0.555542,-1.111099 -1.666656,-2.222214c-0.555542,-0.555557 -1.365997,-0.940811 -1.666656,-1.666672c-0.212585,-0.51326 -0.293396,-0.621277 -0.555542,-1.111099c-0.94519,-1.766083 -2.777802,-1.666672 -2.777802,-1.666672c0,-0.555542 -0.570404,-0.427902 -1.111084,-0.555542c-1.209045,-0.285416 -2.777771,-1.666672 -5,-3.333328c0,0 0.425201,-0.640137 0,-1.666672c-0.601318,-1.451736 -1.111115,-1.666656 -1.666656,-2.222214l-0.555573,0" id="svg_33" fill-opacity="null" stroke-opacity="null" stroke-width="1.5" stroke="#000" fill="none"/>
  <text xml:space="preserve" text-anchor="start" font-family="Helvetica, Arial, sans-serif" font-size="24" id="svg_34" y="208.624112" x="86.944876" fill-opacity="null" stroke-opacity="null" stroke-width="0" stroke="#000" fill="#000000">0</text>
  <text style="cursor: move;" xml:space="preserve" text-anchor="start" font-family="Helvetica, Arial, sans-serif" font-size="24" id="svg_35" y="75.846616" x="468.610746" fill-opacity="null" stroke-opacity="null" stroke-width="0" stroke="#000" fill="#000000">3</text>
  <text style="cursor: move;" xml:space="preserve" text-anchor="start" font-family="Helvetica, Arial, sans-serif" font-size="24" id="svg_36" y="319.179433" x="481.388486" fill-opacity="null" stroke-opacity="null" stroke-width="0" stroke="#000" fill="#000000">4</text>
  <text style="cursor: move;" xml:space="preserve" text-anchor="start" font-family="Helvetica, Arial, sans-serif" font-size="24" id="svg_37" y="312.512785" x="268.611158" fill-opacity="null" stroke-opacity="null" stroke-width="0" stroke="#000" fill="#000000">2</text>
  <text style="cursor: move;" xml:space="preserve" text-anchor="start" font-family="Helvetica, Arial, sans-serif" font-size="24" id="svg_38" y="76.95772" x="262.500058" fill-opacity="null" stroke-opacity="null" stroke-width="0" stroke="#000" fill="#000000">1</text>
  <text xml:space="preserve" text-anchor="start" font-family="Helvetica, Arial, sans-serif" font-size="24" id="svg_39" y="106.957659" x="128.055901" fill-opacity="null" stroke-opacity="null" stroke-width="0" stroke="#000" fill="#000000">4</text>
  <text style="cursor: move;" xml:space="preserve" text-anchor="start" font-family="Helvetica, Arial, sans-serif" font-size="24" id="svg_40" y="338.068279" x="363.055405" fill-opacity="null" stroke-opacity="null" stroke-width="0" stroke="#000" fill="#000000">5</text>
  <text style="cursor: move;" stroke="#000" xml:space="preserve" text-anchor="start" font-family="Helvetica, Arial, sans-serif" font-size="24" id="svg_41" y="44.735568" x="348.610992" fill-opacity="null" stroke-opacity="null" stroke-width="0" fill="#000000">2</text>
  <text style="cursor: move;" xml:space="preserve" text-anchor="start" font-family="Helvetica, Arial, sans-serif" font-size="24" id="svg_42" y="189.735263" x="298.611099" fill-opacity="null" stroke-opacity="null" stroke-width="0" stroke="#000" fill="#000000">3</text>
  <text style="cursor: move;" xml:space="preserve" text-anchor="start" font-family="Helvetica, Arial, sans-serif" font-size="24" id="svg_43" y="264.735103" x="171.389141" fill-opacity="null" stroke-opacity="null" stroke-width="0" stroke="#000" fill="#000000">2</text>
  <text style="cursor: move;" xml:space="preserve" text-anchor="start" font-family="Helvetica, Arial, sans-serif" font-size="24" id="svg_44" y="191.401927" x="221.389038" fill-opacity="null" stroke-opacity="null" stroke-width="0" stroke="#000" fill="#000000">1</text>
  <text style="cursor: move;" xml:space="preserve" text-anchor="start" font-family="Helvetica, Arial, sans-serif" font-size="24" id="svg_45" y="265.846215" x="415.277524" fill-opacity="null" stroke-opacity="null" stroke-width="0" stroke="#000" fill="#000000">3</text>
  <text xml:space="preserve" text-anchor="start" font-family="Helvetica, Arial, sans-serif" font-size="24" id="svg_46" y="147.513129" x="401.388658" fill-opacity="null" stroke-opacity="null" stroke-width="0" stroke="#000" fill="#000000">4</text>
  <text style="cursor: move;" xml:space="preserve" text-anchor="start" font-family="Helvetica, Arial, sans-serif" font-size="24" id="svg_47" y="199.179688" x="496.944028" fill-opacity="null" stroke-opacity="null" stroke-width="0" stroke="#000" fill="#000000">1</text>
 </g>
</svg>